<svg width="46" height="53" viewBox="0 0 46 53" fill="none" xmlns="http://www.w3.org/2000/svg">
<path d="M9.025 1.05859L6.52656 5.33437C6.14062 5.99453 5.9375 6.75625 5.9375 7.52812V7.8125C5.9375 10.057 7.75547 11.875 10 11.875C12.2445 11.875 14.0625 10.057 14.0625 7.8125V7.52812C14.0625 6.75625 13.8594 6.00469 13.4734 5.33437L10.975 1.05859C10.7719 0.713281 10.4062 0.5 10 0.5C9.59375 0.5 9.22813 0.713281 9.025 1.05859ZM22.025 1.05859L19.5266 5.33437C19.1406 5.99453 18.9375 6.75625 18.9375 7.52812V7.8125C18.9375 10.057 20.7555 11.875 23 11.875C25.2445 11.875 27.0625 10.057 27.0625 7.8125V7.52812C27.0625 6.75625 26.8594 6.00469 26.4734 5.33437L23.975 1.05859C23.7719 0.713281 23.4062 0.5 23 0.5C22.5938 0.5 22.2281 0.713281 22.025 1.05859ZM32.5266 5.33437C32.1406 5.99453 31.9375 6.75625 31.9375 7.52812V7.8125C31.9375 10.057 33.7555 11.875 36 11.875C38.2445 11.875 40.0625 10.057 40.0625 7.8125V7.52812C40.0625 6.75625 39.8594 6.00469 39.4734 5.33437L36.975 1.05859C36.7719 0.713281 36.4062 0.5 36 0.5C35.5938 0.5 35.2281 0.713281 35.025 1.05859L32.5266 5.33437ZM13.25 18.375C13.25 16.5773 11.7977 15.125 10 15.125C8.20234 15.125 6.75 16.5773 6.75 18.375V23.25C3.16484 23.25 0.25 26.1648 0.25 29.75V36.9609C1.09297 37.4891 2.08828 37.875 3.175 37.875C4.54609 37.875 5.9375 37.2555 7.075 36.5141C7.62344 36.1586 8.08047 35.793 8.39531 35.5289C8.54766 35.3969 8.66953 35.2852 8.75078 35.2141C8.79141 35.1734 8.82187 35.1531 8.83203 35.1328L8.84219 35.1227C9.15703 34.7977 9.59375 34.625 10.0508 34.6352C10.5078 34.6453 10.9242 34.8484 11.2289 35.1836L11.2391 35.1938C11.2492 35.2039 11.2797 35.2344 11.3102 35.2648C11.3813 35.3359 11.4828 35.4375 11.625 35.5695C11.9094 35.8336 12.3156 36.1891 12.8234 36.5344C13.8594 37.2555 15.1594 37.8648 16.5102 37.8648C17.8609 37.8648 19.1609 37.2555 20.1969 36.5344C20.7047 36.1789 21.1109 35.8336 21.3953 35.5695C21.5375 35.4375 21.6391 35.3359 21.7102 35.2648C21.7406 35.2344 21.7711 35.2039 21.7812 35.1938L21.7914 35.1836C22.0961 34.8281 22.543 34.6352 23.0102 34.6352C23.4773 34.6352 23.9242 34.8383 24.2289 35.1836L24.2391 35.1938C24.2492 35.2039 24.2797 35.2344 24.3102 35.2648C24.3813 35.3359 24.4828 35.4375 24.625 35.5695C24.9094 35.8336 25.3156 36.1891 25.8234 36.5344C26.8594 37.2555 28.1594 37.8648 29.5102 37.8648C30.8609 37.8648 32.1609 37.2555 33.1969 36.5344C33.7047 36.1789 34.1109 35.8336 34.3953 35.5695C34.5375 35.4375 34.6391 35.3359 34.7102 35.2648C34.7406 35.2344 34.7711 35.2039 34.7812 35.1938L34.7914 35.1836C35.0859 34.8383 35.5125 34.6453 35.9695 34.6352C36.4266 34.625 36.8531 34.7977 37.1781 35.1227L37.1883 35.1328C37.2086 35.1531 37.2289 35.1734 37.2695 35.2141C37.3508 35.2852 37.4625 35.3969 37.625 35.5289C37.9398 35.793 38.3867 36.1586 38.9453 36.5141C40.0828 37.2555 41.4742 37.875 42.8453 37.875C43.932 37.875 44.9273 37.4789 45.7703 36.9609V29.75C45.7703 26.1648 42.8555 23.25 39.2703 23.25V18.375C39.2703 16.5773 37.818 15.125 36.0203 15.125C34.2227 15.125 32.7703 16.5773 32.7703 18.375V23.25H26.25V18.375C26.25 16.5773 24.7977 15.125 23 15.125C21.2023 15.125 19.75 16.5773 19.75 18.375V23.25H13.25V18.375ZM45.75 40.5766C44.8867 40.9117 43.9016 41.125 42.825 41.125C40.5398 41.125 38.5187 40.1195 37.1578 39.2359C36.7414 38.9617 36.3656 38.6875 36.0508 38.4438C35.7664 38.6875 35.4313 38.9516 35.0555 39.2055C33.7453 40.1094 31.7953 41.125 29.5 41.125C27.2047 41.125 25.2547 40.1094 23.9547 39.2055C23.5992 38.9617 23.2742 38.7078 23 38.4742C22.7258 38.7078 22.4008 38.9516 22.0453 39.2055C20.7453 40.1094 18.7953 41.125 16.5 41.125C14.2047 41.125 12.2547 40.1094 10.9547 39.2055C10.5789 38.9414 10.2437 38.6773 9.95937 38.4438C9.64453 38.6875 9.26875 38.9617 8.85234 39.2359C7.48125 40.1195 5.46016 41.125 3.175 41.125C2.09844 41.125 1.11328 40.9016 0.25 40.5766V49.25C0.25 51.0477 1.70234 52.5 3.5 52.5H42.5C44.2977 52.5 45.75 51.0477 45.75 49.25V40.5766Z" fill="white"/>
</svg>
